<?xml version="1.0" encoding="UTF-8"?>
<svg id="Layer_1" data-name="Layer 1" xmlns="http://www.w3.org/2000/svg" viewBox="0 0 500 500">
  <defs>
    <style>
      .cls-1 {
        fill: #ff6b00;
      }
    </style>
  </defs>
  <g>
    <path class="cls-1" d="m287.01,272.55l-11.04-48.48,15.31,8.95,10.19,34.46c2.32,7.86,10.58,12.35,18.44,10.02,7.86-2.32,12.35-10.58,10.02-18.44,0,0-12.46-43.12-13.07-44.21-.68-1.21-1.68-2.25-2.96-3l-6.67-3.9-32.39-18.94c-5.08-2.97-11.09-3.89-16.83-2.59l-23.25,5.29c-14.19,3.23-23.08,17.36-19.84,31.55l9.47,41.57-56.62,5.03c-8.71.77-16.17,6.57-19.06,14.83l-6.03,17.2-23.9,68.14c-2.71,7.73,1.36,16.2,9.09,18.91h0c7.73,2.71,16.2-1.36,18.91-9.09l28.35-80.85,6.62-.59c-9.87,13.71-15.69,30.53-15.69,48.71,0,46.1,37.37,83.47,83.47,83.47s83.47-37.37,83.47-83.47c0-32.62-18.72-60.87-46-74.6Zm-37.47,128.39c-29.71,0-53.79-24.08-53.79-53.79s24.08-53.79,53.79-53.79,53.79,24.08,53.79,53.79-24.08,53.79-53.79,53.79Z"/>
    <circle class="cls-1" cx="221.71" cy="159.89" r="25.97"/>
  </g>
  <g>
    <circle class="cls-1" cx="2.55" cy="153.48" r="25.97" transform="translate(-132.62 80.73) rotate(-60.76)"/>
    <path class="cls-1" d="m77.75,226.49l-32.61-28.23c-6.65-5.76-15.16-8.93-23.95-8.93H-6.07c-11.61,0-22.53,5.51-29.43,14.84l-21.1,28.54-39.41-9.81c-7.95-1.98-16,2.86-17.98,10.82-1.98,7.95,2.86,16.01,10.82,17.98l45.26,11.37c8.07,2.03,16.57-.96,21.6-7.59l11.79-15.55v51.53l-34.36,39.81c-5.77,6.68-9.71,14.75-11.43,23.4l-11.97,60.16c-1.41,8.07,4,15.76,12.07,17.17,8.07,1.41,15.76-4,17.16-12.07l9.59-55.03c.87-4.98,3.07-9.64,6.38-13.47l42.39-49.1,9.71,46.31c1.61,7.68,4.15,15.14,7.57,22.21l27.94,57.8c3.57,7.38,12.44,10.47,19.82,6.9h0c7.38-3.57,10.47-12.44,6.9-19.82l-31.57-65.3c-.81-1.67-1.4-3.43-1.76-5.25l-9.09-45.71v-70.8l20.8,17.94v31.12c0,8.15,6.49,14.95,14.64,15.06,8.29.11,15.04-6.58,15.04-14.84l.09-34.69c.02-6.44-2.77-12.56-7.64-16.78Z"/>
  </g>
  <g>
    <circle class="cls-1" cx="497.36" cy="155.03" r="25.97"/>
    <path class="cls-1" d="m563.26,246.88l-20.47-41.33c-4.57-9-13.81-14.67-23.91-14.67h-25.04c-9.86,0-17.86,7.99-17.86,17.86v29.25l-37.39,44c-5.31,6.24-4.55,15.61,1.7,20.92h0c.32.27.66.53,1,.77l-78.37,128.98c-.53.88-.25,2.02.62,2.55h0c.88.53,2.02.25,2.55-.62l78.47-129.15c5.72,2.21,12.46.7,16.65-4.23l14.78-17.39v18.36l-17.21,48.95c-2.6,7.32-4.15,14.96-4.59,22.72l-2.53,44.25c-.47,8.18,5.78,15.19,13.97,15.66h0c8.18.47,15.19-5.78,15.66-13.97l2.76-48.16c.25-4.41,1.16-8.76,2.7-12.91l19.12-51.58.69,52.17c.06,4.73.8,9.43,2.19,13.95l14.35,46.74c2.4,7.83,10.71,12.24,18.54,9.83h0c7.83-2.4,12.24-10.71,9.83-18.54l-15.08-49.12c-.69-2.24-1.04-4.56-1.04-6.9v-98.66l3.24,6.29v41.67c0,8.2,6.64,14.84,14.84,14.84s14.84-6.64,14.84-14.84v-36.35c0-7.4-1.71-14.71-5-21.34Z"/>
  </g>
</svg>